<svg width="32" height="32" viewBox="0 0 32 32" fill="none" xmlns="http://www.w3.org/2000/svg">
<path fill-rule="evenodd" clip-rule="evenodd" d="M16 30C19.713 30 23.274 28.525 25.8995 25.8995C28.525 23.274 30 19.713 30 16C30 12.287 28.525 8.72601 25.8995 6.1005C23.274 3.475 19.713 2 16 2C12.287 2 8.72601 3.475 6.1005 6.1005C3.475 8.72601 2 12.287 2 16C2 19.713 3.475 23.274 6.1005 25.8995C8.72601 28.525 12.287 30 16 30V30ZM16 32C20.2435 32 24.3131 30.3143 27.3137 27.3137C30.3143 24.3131 32 20.2435 32 16C32 11.7565 30.3143 7.68687 27.3137 4.68629C24.3131 1.68571 20.2435 0 16 0C11.7565 0 7.68687 1.68571 4.68629 4.68629C1.68571 7.68687 0 11.7565 0 16C0 20.2435 1.68571 24.3131 4.68629 27.3137C7.68687 30.3143 11.7565 32 16 32V32Z" fill="#353535"/>
<path fill-rule="evenodd" clip-rule="evenodd" d="M23.708 8.29183C23.8012 8.38473 23.8751 8.49508 23.9255 8.61657C23.9759 8.73806 24.0018 8.8683 24.0018 8.99983C24.0018 9.13137 23.9759 9.26161 23.9255 9.3831C23.8751 9.50459 23.8012 9.61494 23.708 9.70783L9.70804 23.7078C9.52027 23.8956 9.26559 24.0011 9.00004 24.0011C8.73449 24.0011 8.47982 23.8956 8.29204 23.7078C8.10427 23.5201 7.99878 23.2654 7.99878 22.9998C7.99878 22.7343 8.10427 22.4796 8.29204 22.2918L22.292 8.29183C22.3849 8.19871 22.4953 8.12482 22.6168 8.07441C22.7383 8.024 22.8685 7.99805 23 7.99805C23.1316 7.99805 23.2618 8.024 23.3833 8.07441C23.5048 8.12482 23.6152 8.19871 23.708 8.29183V8.29183Z" fill="#353535"/>
<path fill-rule="evenodd" clip-rule="evenodd" d="M8.29196 8.29183C8.19883 8.38473 8.12494 8.49508 8.07453 8.61657C8.02412 8.73806 7.99817 8.8683 7.99817 8.99983C7.99817 9.13137 8.02412 9.26161 8.07453 9.3831C8.12494 9.50459 8.19883 9.61494 8.29196 9.70783L22.292 23.7078C22.4797 23.8956 22.7344 24.0011 23 24.0011C23.2655 24.0011 23.5202 23.8956 23.708 23.7078C23.8957 23.5201 24.0012 23.2654 24.0012 22.9998C24.0012 22.7343 23.8957 22.4796 23.708 22.2918L9.70796 8.29183C9.61507 8.19871 9.50471 8.12482 9.38322 8.07441C9.26173 8.024 9.13149 7.99805 8.99996 7.99805C8.86842 7.99805 8.73818 8.024 8.61669 8.07441C8.4952 8.12482 8.38485 8.19871 8.29196 8.29183V8.29183Z" fill="#353535"/>
</svg>
