<svg width="16" height="16" viewBox="0 0 16 16" fill="none" xmlns="http://www.w3.org/2000/svg">
<path d="M7.99986 14.4133C7.90166 14.413 7.80633 14.3802 7.72875 14.32C5.25764 12.4 3.55541 10.7467 2.3643 9.11556C0.844304 7.03112 0.497637 5.10667 1.33319 3.39556C1.92875 2.17334 3.63986 1.17334 5.63986 1.75556C6.59343 2.031 7.42541 2.62169 7.99986 3.43112C8.57431 2.62169 9.40628 2.031 10.3599 1.75556C12.3554 1.18223 14.071 2.17334 14.6665 3.39556C15.5021 5.10667 15.1554 7.03112 13.6354 9.11556C12.4443 10.7467 10.7421 12.4 8.27097 14.32C8.19339 14.3802 8.09806 14.413 7.99986 14.4133V14.4133ZM4.50208 2.48C4.02619 2.46148 3.55425 2.57291 3.1369 2.80234C2.71956 3.03176 2.37257 3.37051 2.13319 3.78223C1.4443 5.19556 1.75541 6.76889 3.0843 8.58667C4.49656 10.4083 6.15026 12.0291 7.99986 13.4045C9.84916 12.0304 11.5029 10.4111 12.9154 8.59112C14.2487 6.76889 14.5554 5.19556 13.8665 3.78667C13.4221 2.89778 12.0887 2.19112 10.6043 2.60889C10.1283 2.74956 9.68706 2.98832 9.30893 3.30982C8.93079 3.63131 8.62415 4.02841 8.40875 4.47556C8.37526 4.55708 8.3183 4.6268 8.2451 4.67586C8.1719 4.72493 8.08576 4.75113 7.99764 4.75113C7.90951 4.75113 7.82338 4.72493 7.75017 4.67586C7.67697 4.6268 7.62001 4.55708 7.58653 4.47556C7.37274 4.02729 7.06663 3.62926 6.68825 3.30757C6.30988 2.98588 5.86779 2.74778 5.39097 2.60889C5.10207 2.52498 4.80292 2.48161 4.50208 2.48V2.48Z" fill="#353535"/>
</svg>
